{
	"asset": {
		"generator": "yam-n7 procedural bottle builder",
		"version": "2.0"
	},
	"scene": 0,
	"scenes": [
		{
			"name": "Scene",
			"nodes": [
				0,
				1,
				2
			]
		}
	],
	"nodes": [
		{
			"mesh": 0,
			"name": "vessel"
		},
		{
			"mesh": 1,
			"name": "vessel_1"
		},
		{
			"mesh": 2,
			"name": "Cap"
		}
	],
	"meshes": [
		{
			"name": "vesselMesh",
			"primitives": [
				{
					"attributes": {
						"POSITION": 0,
						"NORMAL": 1,
						"TEXCOORD_0": 2
					},
					"indices": 3,
					"mode": 4
				}
			]
		},
		{
			"name": "vessel_1Mesh",
			"primitives": [
				{
					"attributes": {
						"POSITION": 4,
						"NORMAL": 5,
						"TEXCOORD_0": 6
					},
					"indices": 7,
					"mode": 4
				}
			]
		},
		{
			"name": "CapMesh",
			"primitives": [
				{
					"attributes": {
						"POSITION": 8,
						"NORMAL": 9,
						"TEXCOORD_0": 10
					},
					"indices": 11,
					"mode": 4
				}
			]
		}
	],
	"accessors": [
		{
			"bufferView": 0,
			"componentType": 5126,
			"count": 196,
			"type": "VEC3",
			"min": [
				-0.215,
				-0.346,
				-0.125
			],
			"max": [
				0.215,
				-0.308,
				0.125
			]
		},
		{
			"bufferView": 1,
			"componentType": 5126,
			"count": 196,
			"type": "VEC3"
		},
		{
			"bufferView": 2,
			"componentType": 5126,
			"count": 196,
			"type": "VEC2"
		},
		{
			"bufferView": 3,
			"componentType": 5123,
			"count": 864,
			"type": "SCALAR"
		},
		{
			"bufferView": 4,
			"componentType": 5126,
			"count": 780,
			"type": "VEC3",
			"min": [
				-0.205,
				-0.34,
				-0.12
			],
			"max": [
				0.205,
				0.355,
				0.12
			]
		},
		{
			"bufferView": 5,
			"componentType": 5126,
			"count": 780,
			"type": "VEC3"
		},
		{
			"bufferView": 6,
			"componentType": 5126,
			"count": 780,
			"type": "VEC2"
		},
		{
			"bufferView": 7,
			"componentType": 5123,
			"count": 4224,
			"type": "SCALAR"
		},
		{
			"bufferView": 8,
			"componentType": 5126,
			"count": 198,
			"type": "VEC3",
			"min": [
				-0.1,
				0.345,
				-0.075
			],
			"max": [
				0.1,
				0.485,
				0.075
			]
		},
		{
			"bufferView": 9,
			"componentType": 5126,
			"count": 198,
			"type": "VEC3"
		},
		{
			"bufferView": 10,
			"componentType": 5126,
			"count": 198,
			"type": "VEC2"
		},
		{
			"bufferView": 11,
			"componentType": 5123,
			"count": 960,
			"type": "SCALAR"
		}
	],
	"bufferViews": [
		{
			"buffer": 0,
			"byteOffset": 0,
			"byteLength": 2352,
			"target": 34962
		},
		{
			"buffer": 0,
			"byteOffset": 2352,
			"byteLength": 2352,
			"target": 34962
		},
		{
			"buffer": 0,
			"byteOffset": 4704,
			"byteLength": 1568,
			"target": 34962
		},
		{
			"buffer": 0,
			"byteOffset": 6272,
			"byteLength": 1728,
			"target": 34963
		},
		{
			"buffer": 0,
			"byteOffset": 8000,
			"byteLength": 9360,
			"target": 34962
		},
		{
			"buffer": 0,
			"byteOffset": 17360,
			"byteLength": 9360,
			"target": 34962
		},
		{
			"buffer": 0,
			"byteOffset": 26720,
			"byteLength": 6240,
			"target": 34962
		},
		{
			"buffer": 0,
			"byteOffset": 32960,
			"byteLength": 8448,
			"target": 34963
		},
		{
			"buffer": 0,
			"byteOffset": 41408,
			"byteLength": 2376,
			"target": 34962
		},
		{
			"buffer": 0,
			"byteOffset": 43784,
			"byteLength": 2376,
			"target": 34962
		},
		{
			"buffer": 0,
			"byteOffset": 46160,
			"byteLength": 1584,
			"target": 34962
		},
		{
			"buffer": 0,
			"byteOffset": 47744,
			"byteLength": 1920,
			"target": 34963
		}
	],
	"buffers": [
		{
			"byteLength": 49664,
			"uri": "Perfume-bottle.bin"
		}
	]
}